<svg width="131" height="59" viewBox="0 0 131 59" fill="none" xmlns="http://www.w3.org/2000/svg">
<path d="M7.96131 1.78332V1.78333L7.96612 1.78332L96.3872 1.5C96.3879 1.5 96.3886 1.5 96.3894 1.5C99.1613 1.50121 101.425 3.75794 101.425 6.53129L101.425 6.5357L101.5 32.1854C101.5 32.186 101.5 32.1866 101.5 32.1871C101.499 34.9717 99.2424 37.2356 96.4814 37.2356L96.4765 37.2356L14.5741 37.5C14.5734 37.5 14.5726 37.5 14.5718 37.5C11.8 37.4987 9.53667 35.2421 9.53668 32.4687L9.53666 32.4631L9.4613 12.4153L9.45947 11.9287L9.17235 11.5358L2.04472 1.78332H7.96131Z" fill="#F1F6FC" stroke="#2C5889" stroke-width="3"/>
<path d="M123.039 21.7833V21.7833L123.034 21.7833L34.6128 21.5C34.6121 21.5 34.6114 21.5 34.6106 21.5C31.8387 21.5012 29.5754 23.7579 29.5754 26.5313L29.5754 26.5357L29.5 52.1854C29.5 52.186 29.5 52.1866 29.5 52.1871C29.5009 54.9717 31.7576 57.2356 34.5186 57.2356L34.5235 57.2356L116.426 57.5C116.427 57.5 116.427 57.5 116.428 57.5C119.2 57.4987 121.463 55.2421 121.463 52.4687L121.463 52.4631L121.539 32.4153L121.541 31.9287L121.828 31.5358L128.955 21.7833H123.039Z" fill="#F1F6FC" stroke="#638DB8" stroke-width="3"/>
</svg>

