<svg width="295" height="296" viewBox="0 0 295 296" fill="none" xmlns="http://www.w3.org/2000/svg">
<ellipse cx="120" cy="120.5" rx="120.5" ry="120" transform="rotate(-90 120 120.5)" fill="url(#paint0_linear_1_101)" fill-opacity="0.15"/>
<ellipse cx="175" cy="175.5" rx="120.5" ry="120" transform="rotate(-90 175 175.5)" fill="url(#paint1_linear_1_101)" fill-opacity="0.15"/>
<g clip-path="url(#clip0_1_101)">
<path d="M109.23 178.95H78.12L69.09 187.99H14.23" stroke="#2C5889" stroke-width="2" stroke-linecap="square" stroke-linejoin="round"/>
<path d="M109.23 170.92H62.73L54.92 163.11H14.23" stroke="#2C5889" stroke-width="2" stroke-linecap="square" stroke-linejoin="round"/>
<path d="M60.06 177.61H14.23" stroke="#2C5889" stroke-width="2" stroke-linecap="square" stroke-linejoin="round"/>
<path d="M109.23 161.66H70.76L58.33 149.23H13.56" stroke="#2C5889" stroke-width="2" stroke-linecap="square" stroke-linejoin="round"/>
<path d="M14.23 138.17H63.57L78.12 152.72H109.06" stroke="#2C5889" stroke-width="2" stroke-linecap="square" stroke-linejoin="round"/>
<path d="M109.06 142.82H83.81" stroke="#2C5889" stroke-width="2" stroke-linecap="square" stroke-linejoin="round"/>
<path d="M109.06 134.13H73.1L58.08 119.11H12.89" stroke="#2C5889" stroke-width="2" stroke-linecap="square" stroke-linejoin="round"/>
<path d="M109.06 124.43H88.49" stroke="#2C5889" stroke-width="2" stroke-linecap="square" stroke-linejoin="round"/>
<path d="M76.95 122.84L58.8 104.69" stroke="#2C5889" stroke-width="2" stroke-linecap="square" stroke-linejoin="round"/>
<path d="M109.06 115.39H83.81L62.52 94.1001H14.23" stroke="#2C5889" stroke-width="2" stroke-linecap="square" stroke-linejoin="round"/>
<path d="M109.23 104.69H83.81" stroke="#2C5889" stroke-width="2" stroke-linecap="square" stroke-linejoin="round"/>
<path d="M103.52 57.64V29.54" stroke="#2C5889" stroke-width="2" stroke-linecap="square" stroke-linejoin="round"/>
<path d="M112.55 97.78V66.67" stroke="#2C5889" stroke-width="2" stroke-linecap="square" stroke-linejoin="round"/>
<path d="M120.58 97.78V51.29L128.39 43.48V29.54" stroke="#2C5889" stroke-width="2" stroke-linecap="square" stroke-linejoin="round"/>
<path d="M113.89 48.61V29.54" stroke="#2C5889" stroke-width="2" stroke-linecap="square" stroke-linejoin="round"/>
<path d="M129.84 97.78V59.32L142.27 46.89V29.88" stroke="#2C5889" stroke-width="2" stroke-linecap="square" stroke-linejoin="round"/>
<path d="M138.78 66.67V97.62" stroke="#2C5889" stroke-width="2" stroke-linecap="square" stroke-linejoin="round"/>
<path d="M158.94 29.54V48.44" stroke="#2C5889" stroke-width="2" stroke-linecap="square" stroke-linejoin="round"/>
<path d="M148.68 97.62V72.36V29.54" stroke="#2C5889" stroke-width="2" stroke-linecap="square" stroke-linejoin="round"/>
<path d="M157.38 97.62V61.66L172.4 46.64V29.88" stroke="#2C5889" stroke-width="2" stroke-linecap="square" stroke-linejoin="round"/>
<path d="M167.08 97.62V77.04" stroke="#2C5889" stroke-width="2" stroke-linecap="square" stroke-linejoin="round"/>
<path d="M168.66 65.5L186.81 47.36V29.54" stroke="#2C5889" stroke-width="2" stroke-linecap="square" stroke-linejoin="round"/>
<path d="M176.11 97.62V72.36L197.4 51.07V29.54" stroke="#2C5889" stroke-width="2" stroke-linecap="square" stroke-linejoin="round"/>
<path d="M186.81 97.78V72.36" stroke="#2C5889" stroke-width="2" stroke-linecap="square" stroke-linejoin="round"/>
<path d="M188.66 183.57V214.68L197.69 223.71" stroke="#2C5889" stroke-width="2" stroke-linecap="square" stroke-linejoin="round"/>
<path d="M180.63 183.57V230.07L172.82 237.88" stroke="#2C5889" stroke-width="2" stroke-linecap="square" stroke-linejoin="round"/>
<path d="M187.32 232.74V281.91" stroke="#2C5889" stroke-width="2" stroke-linecap="square" stroke-linejoin="round"/>
<path d="M171.37 183.57V222.04L158.94 234.46V281.91" stroke="#2C5889" stroke-width="2" stroke-linecap="square" stroke-linejoin="round"/>
<path d="M147.88 281.91V229.23L162.43 214.68V183.74" stroke="#2C5889" stroke-width="2" stroke-linecap="square" stroke-linejoin="round"/>
<path d="M152.53 183.74V208.99" stroke="#2C5889" stroke-width="2" stroke-linecap="square" stroke-linejoin="round"/>
<path d="M143.83 183.74V219.7L128.81 234.72V281.91" stroke="#2C5889" stroke-width="2" stroke-linecap="square" stroke-linejoin="round"/>
<path d="M134.13 183.74V204.31" stroke="#2C5889" stroke-width="2" stroke-linecap="square" stroke-linejoin="round"/>
<path d="M132.54 215.85L114.4 234V281.91" stroke="#2C5889" stroke-width="2" stroke-linecap="square" stroke-linejoin="round"/>
<path d="M125.1 183.74V208.99L103.81 230.28V281.91" stroke="#2C5889" stroke-width="2" stroke-linecap="square" stroke-linejoin="round"/>
<path d="M114.4 183.57V208.99" stroke="#2C5889" stroke-width="2" stroke-linecap="square" stroke-linejoin="round"/>
<path d="M194.01 180.25H225.12L234.16 189.28H282.32" stroke="#2C5889" stroke-width="2" stroke-linecap="square" stroke-linejoin="round"/>
<path d="M194.01 172.22H240.51L248.32 164.41H282.32" stroke="#2C5889" stroke-width="2" stroke-linecap="square" stroke-linejoin="round"/>
<path d="M243.18 178.91H282.32" stroke="#2C5889" stroke-width="2" stroke-linecap="square" stroke-linejoin="round"/>
<path d="M194.01 162.96H232.48L244.91 150.53H281.99" stroke="#2C5889" stroke-width="2" stroke-linecap="square" stroke-linejoin="round"/>
<path d="M282.32 139.47H239.67L225.12 154.02H194.18" stroke="#2C5889" stroke-width="2" stroke-linecap="square" stroke-linejoin="round"/>
<path d="M194.18 144.12H219.43" stroke="#2C5889" stroke-width="2" stroke-linecap="square" stroke-linejoin="round"/>
<path d="M194.18 135.42H230.14L245.16 120.4H281.99" stroke="#2C5889" stroke-width="2" stroke-linecap="square" stroke-linejoin="round"/>
<path d="M194.18 125.72H214.75" stroke="#2C5889" stroke-width="2" stroke-linecap="square" stroke-linejoin="round"/>
<path d="M226.29 124.13L244.44 105.99" stroke="#2C5889" stroke-width="2" stroke-linecap="square" stroke-linejoin="round"/>
<path d="M194.18 116.69H219.43L240.72 95.4H282.32" stroke="#2C5889" stroke-width="2" stroke-linecap="square" stroke-linejoin="round"/>
<path d="M194.01 105.99H219.43" stroke="#2C5889" stroke-width="2" stroke-linecap="square" stroke-linejoin="round"/>
<g style="mix-blend-mode:color-dodge">
<path d="M180.88 115.19V166.9C179.23 168.55 178.31 169.47 176.66 171.12H124.95L120.73 166.9V115.19L124.95 110.97H176.66C178.31 112.62 179.23 113.54 180.88 115.19Z" stroke="#2C5889" stroke-width="0.58" stroke-linecap="round" stroke-linejoin="round"/>
</g>
<g style="mix-blend-mode:color-dodge">
<path d="M203.23 95.98V186.11C200.36 188.98 198.74 190.6 195.87 193.47H105.74L98.38 186.11V95.98C101.25 93.11 102.87 91.49 105.74 88.62H195.87C198.74 91.49 200.36 93.11 203.23 95.98Z" fill="url(#paint2_linear_1_101)"/>
<path d="M203.23 95.98V186.11C200.36 188.98 198.74 190.6 195.87 193.47H105.74L98.38 186.11V95.98C101.25 93.11 102.87 91.49 105.74 88.62H195.87C198.74 91.49 200.36 93.11 203.23 95.98Z" stroke="#2C5889" stroke-width="2" stroke-linecap="round" stroke-linejoin="round"/>
</g>
<path style="mix-blend-mode:color-dodge" d="M190.92 108.96V173.13C187.78 176.27 186.03 178.02 182.89 181.16H118.72L110.69 173.13V108.96C113.83 105.82 115.58 104.07 118.72 100.93H182.89L190.92 108.96Z" fill="url(#paint3_radial_1_101)"/>
<path d="M15.12 149.23C15.12 150.09 14.42 150.79 13.56 150.79C12.7 150.79 12 150.09 12 149.23C12 148.37 12.7 147.67 13.56 147.67C14.42 147.67 15.12 148.37 15.12 149.23Z" fill="#2C5889"/>
<path d="M15.12 138.17C15.12 139.03 14.42 139.73 13.56 139.73C12.7 139.73 12 139.03 12 138.17C12 137.31 12.7 136.61 13.56 136.61C14.42 136.61 15.12 137.31 15.12 138.17Z" fill="#2C5889"/>
<path d="M283.55 139.47C283.55 140.33 282.85 141.03 281.99 141.03C281.13 141.03 280.43 140.33 280.43 139.47C280.43 138.61 281.13 137.91 281.99 137.91C282.85 137.91 283.55 138.61 283.55 139.47Z" fill="#2C5889"/>
<path d="M283.55 120.4C283.55 121.26 282.85 121.96 281.99 121.96C281.13 121.96 280.43 121.26 280.43 120.4C280.43 119.54 281.13 118.84 281.99 118.84C282.85 118.84 283.55 119.54 283.55 120.4Z" fill="#2C5889"/>
<path d="M283.55 95.4C283.55 96.26 282.85 96.96 281.99 96.96C281.13 96.96 280.43 96.26 280.43 95.4C280.43 94.54 281.13 93.84 281.99 93.84C282.85 93.84 283.55 94.54 283.55 95.4Z" fill="#2C5889"/>
<path d="M198.96 28.56C198.96 29.42 198.26 30.12 197.4 30.12C196.54 30.12 195.84 29.42 195.84 28.56C195.84 27.7 196.54 27 197.4 27C198.26 27 198.96 27.7 198.96 28.56Z" fill="#2C5889"/>
<path d="M188.32 28.56C188.32 29.42 187.62 30.12 186.76 30.12C185.9 30.12 185.2 29.42 185.2 28.56C185.2 27.7 185.9 27 186.76 27C187.62 27 188.32 27.7 188.32 28.56Z" fill="#2C5889"/>
<path d="M173.96 28.56C173.96 29.42 173.26 30.12 172.4 30.12C171.54 30.12 170.84 29.42 170.84 28.56C170.84 27.7 171.54 27 172.4 27C173.26 27 173.96 27.7 173.96 28.56Z" fill="#2C5889"/>
<path d="M160.5 28.56C160.5 29.42 159.8 30.12 158.94 30.12C158.08 30.12 157.38 29.42 157.38 28.56C157.38 27.7 158.08 27 158.94 27C159.8 27 160.5 27.7 160.5 28.56Z" fill="#2C5889"/>
<path d="M150.24 28.56C150.24 29.42 149.54 30.12 148.68 30.12C147.82 30.12 147.12 29.42 147.12 28.56C147.12 27.7 147.82 27 148.68 27C149.54 27 150.24 27.7 150.24 28.56Z" fill="#2C5889"/>
<path d="M143.83 28.56C143.83 29.42 143.13 30.12 142.27 30.12C141.41 30.12 140.71 29.42 140.71 28.56C140.71 27.7 141.41 27 142.27 27C143.13 27 143.83 27.7 143.83 28.56Z" fill="#2C5889"/>
<path d="M129.95 28.56C129.95 29.42 129.25 30.12 128.39 30.12C127.53 30.12 126.83 29.42 126.83 28.56C126.83 27.7 127.53 27 128.39 27C129.25 27 129.95 27.7 129.95 28.56Z" fill="#2C5889"/>
<path d="M115.45 28.56C115.45 29.42 114.75 30.12 113.89 30.12C113.03 30.12 112.33 29.42 112.33 28.56C112.33 27.7 113.03 27 113.89 27C114.75 27 115.45 27.7 115.45 28.56Z" fill="#2C5889"/>
<path d="M105.08 28.56C105.08 29.42 104.38 30.12 103.52 30.12C102.66 30.12 101.96 29.42 101.96 28.56C101.96 27.7 102.66 27 103.52 27C104.38 27 105.08 27.7 105.08 28.56Z" fill="#2C5889"/>
<path d="M283.55 150.53C283.55 151.39 282.85 152.09 281.99 152.09C281.13 152.09 280.43 151.39 280.43 150.53C280.43 149.67 281.13 148.97 281.99 148.97C282.85 148.97 283.55 149.67 283.55 150.53Z" fill="#2C5889"/>
<path d="M283.55 164.41C283.55 165.27 282.85 165.97 281.99 165.97C281.13 165.97 280.43 165.27 280.43 164.41C280.43 163.55 281.13 162.85 281.99 162.85C282.85 162.85 283.55 163.55 283.55 164.41Z" fill="#2C5889"/>
<path d="M283.55 178.91C283.55 179.77 282.85 180.47 281.99 180.47C281.13 180.47 280.43 179.77 280.43 178.91C280.43 178.05 281.13 177.35 281.99 177.35C282.85 177.35 283.55 178.05 283.55 178.91Z" fill="#2C5889"/>
<path d="M283.55 189.28C283.55 190.14 282.85 190.84 281.99 190.84C281.13 190.84 280.43 190.14 280.43 189.28C280.43 188.42 281.13 187.72 281.99 187.72C282.85 187.72 283.55 188.42 283.55 189.28Z" fill="#2C5889"/>
<path d="M15.12 163.11C15.12 163.97 14.42 164.67 13.56 164.67C12.7 164.67 12 163.97 12 163.11C12 162.25 12.7 161.55 13.56 161.55C14.42 161.55 15.12 162.25 15.12 163.11Z" fill="#2C5889"/>
<path d="M15.12 177.61C15.12 178.47 14.42 179.17 13.56 179.17C12.7 179.17 12 178.47 12 177.61C12 176.75 12.7 176.05 13.56 176.05C14.42 176.05 15.12 176.75 15.12 177.61Z" fill="#2C5889"/>
<path d="M15.12 187.99C15.12 188.85 14.42 189.55 13.56 189.55C12.7 189.55 12 188.85 12 187.99C12 187.13 12.7 186.43 13.56 186.43C14.42 186.43 15.12 187.13 15.12 187.99Z" fill="#2C5889"/>
<path d="M15.12 119.11C15.12 119.97 14.42 120.67 13.56 120.67C12.7 120.67 12 119.97 12 119.11C12 118.25 12.7 117.55 13.56 117.55C14.42 117.55 15.12 118.25 15.12 119.11Z" fill="#2C5889"/>
<path d="M15.12 94.1C15.12 94.96 14.42 95.66 13.56 95.66C12.7 95.66 12 94.96 12 94.1C12 93.24 12.7 92.54 13.56 92.54C14.42 92.54 15.12 93.24 15.12 94.1Z" fill="#2C5889"/>
</g>
<defs>
<linearGradient id="paint0_linear_1_101" x1="119.724" y1="426.747" x2="119.925" y2="5.21491" gradientUnits="userSpaceOnUse">
<stop stop-color="#9FC6EA"/>
<stop offset="1" stop-color="#224267"/>
</linearGradient>
<linearGradient id="paint1_linear_1_101" x1="174.724" y1="481.747" x2="174.925" y2="60.2149" gradientUnits="userSpaceOnUse">
<stop stop-color="#9FC6EA"/>
<stop offset="1" stop-color="#224267"/>
</linearGradient>
<linearGradient id="paint2_linear_1_101" x1="150.805" y1="88.62" x2="150.805" y2="193.47" gradientUnits="userSpaceOnUse">
<stop stop-color="#2B5686"/>
<stop offset="1" stop-color="#161A3D"/>
</linearGradient>
<radialGradient id="paint3_radial_1_101" cx="0" cy="0" r="1" gradientUnits="userSpaceOnUse" gradientTransform="translate(150.8 190) rotate(-90.171) scale(100.5 100.5)">
<stop stop-color="#224267"/>
<stop offset="0.5" stop-color="#E6E6E6"/>
<stop offset="1" stop-color="#2C5889"/>
</radialGradient>
<clipPath id="clip0_1_101">
<rect width="282.32" height="255.42" fill="white" transform="translate(12 27)"/>
</clipPath>
</defs>
</svg>
