<svg width="295" height="320" viewBox="0 0 295 320" fill="none" xmlns="http://www.w3.org/2000/svg">
<ellipse cx="120" cy="120.5" rx="120.5" ry="120" transform="rotate(-90 120 120.5)" fill="url(#paint0_linear_1_200)" fill-opacity="0.15"/>
<ellipse cx="175" cy="175.5" rx="120.5" ry="120" transform="rotate(-90 175 175.5)" fill="url(#paint1_linear_1_200)" fill-opacity="0.15"/>
<path d="M191.704 172.791C196.983 204.082 221.082 229.322 231.597 239.006C243.012 249.518 255.336 247.743 256.488 226.445C257.376 210.004 254.551 191.288 249.025 174.558C244.181 159.893 235.993 145.951 224.382 137.042C221.474 134.81 218.085 133.465 214.579 133.094C205.626 132.15 197.296 137.754 194.131 146.87C191.319 154.975 190.242 164.134 191.703 172.791H191.704Z" fill="url(#paint2_linear_1_200)"/>
<path d="M102.946 172.789C101.149 183.448 97.1667 193.404 92.2814 202.284C91.8159 203.132 91.3412 203.968 90.8588 204.797C81.5738 220.75 69.6448 232.934 63.0528 239.005C51.64 249.518 39.3147 247.74 38.161 226.443C37.273 210.002 40.0997 191.286 45.6241 174.556C45.8315 173.926 46.0465 173.297 46.2677 172.669C46.6349 171.623 47.0205 170.578 47.4245 169.543C52.3912 156.757 59.9895 144.928 70.267 137.041C73.1736 134.81 76.5625 133.463 80.0682 133.092C89.023 132.148 97.351 137.753 100.516 146.868C103.329 154.973 104.405 164.133 102.944 172.789H102.946Z" fill="url(#paint3_linear_1_200)"/>
<path opacity="0.1" d="M92.2815 202.286C91.816 203.134 91.3413 203.97 90.8589 204.798C73.2643 198.447 58.3412 187.699 46.2693 172.669C46.6365 171.623 47.0221 170.578 47.4261 169.543C54.1288 178.152 61.7793 185.402 70.2578 191.171C77.005 195.759 84.3683 199.473 92.2815 202.286Z" fill="#131E2E"/>
<path opacity="0.1" d="M202.37 202.286C202.836 203.134 203.311 203.97 203.793 204.798C221.388 198.447 236.311 187.699 248.383 172.669C248.015 171.623 247.63 170.578 247.226 169.543C240.523 178.152 232.873 185.402 224.394 191.171C217.647 195.759 210.284 199.473 202.37 202.286Z" fill="#131E2E"/>
<path d="M221.573 176.833C221.573 188.009 219.874 199.471 216.774 210.512C180.075 242.662 122.619 241.53 79.1249 210.478C76.0294 199.448 74.3334 187.998 74.3334 176.833C74.3334 127.601 107.295 119.521 147.953 119.521C188.612 119.521 221.573 127.601 221.573 176.833Z" fill="url(#paint4_linear_1_200)"/>
<path d="M216.773 210.512C206.209 248.102 179.382 280.819 147.953 280.819C116.525 280.819 89.679 248.082 79.1234 210.476C80.7273 210.409 82.3311 210.269 83.9227 210.051C95.996 208.405 107.423 202.39 115.606 193.374C120.915 187.526 124.857 180.52 130.389 174.882C130.436 174.834 130.48 174.79 130.526 174.744C139.793 165.404 154.94 165.404 164.207 174.744C164.253 174.79 164.298 174.834 164.344 174.882C169.876 180.52 173.818 187.526 179.127 193.374C187.311 202.392 198.737 208.405 210.81 210.051C212.786 210.321 214.777 210.473 216.77 210.51L216.773 210.512Z" fill="url(#paint5_linear_1_200)"/>
<path d="M63.5321 95.0609C52.6155 95.0609 43.7667 85.7703 43.7667 74.3104C43.7667 62.8505 52.6155 53.5598 63.5321 53.5598V95.0594V95.0609Z" fill="url(#paint6_linear_1_200)"/>
<path d="M231.207 95.0609C242.124 95.0609 250.973 85.7703 250.973 74.3104C250.973 62.8505 242.124 53.5598 231.207 53.5598V95.0594V95.0609Z" fill="url(#paint7_linear_1_200)"/>
<path d="M236.489 78.379C236.489 121.756 196.57 132.621 147.325 132.621C98.0823 132.621 58.1614 121.756 58.1614 78.379V70.242C58.1629 26.8647 98.0823 16 147.325 16C196.568 16 236.489 26.8647 236.489 70.242V78.379Z" fill="url(#paint8_linear_1_200)"/>
<path d="M218.278 83.3281C218.278 107.388 186.532 113.414 147.37 113.414C108.208 113.414 76.4611 107.388 76.4611 83.3281V78.8147C76.4611 54.755 108.208 48.729 147.37 48.729C186.532 48.729 218.278 54.755 218.278 78.8147V83.3281Z" fill="url(#paint9_linear_1_200)"/>
<path d="M128.159 85.7367C128.595 87.435 127.03 88.9737 125.331 88.5288C121.419 87.504 117.41 86.9916 113.399 86.9916C109.388 86.9916 105.378 87.504 101.467 88.5288C99.7691 88.9737 98.2037 87.435 98.6384 85.7367C100.324 79.1661 106.294 74.3105 113.399 74.3105C120.504 74.3105 126.472 79.1676 128.159 85.7367Z" fill="url(#paint10_radial_1_200)"/>
<path d="M166.579 85.7367C166.143 87.435 167.708 88.9737 169.407 88.5288C173.318 87.504 177.328 86.9916 181.339 86.9916C185.35 86.9916 189.36 87.504 193.271 88.5288C194.969 88.9737 196.534 87.435 196.099 85.7367C194.414 79.1661 188.444 74.3105 181.339 74.3105C174.234 74.3105 168.266 79.1676 166.579 85.7367Z" fill="url(#paint11_radial_1_200)"/>
<path opacity="0.76" d="M218.278 78.8164V83.3283C218.278 83.5968 218.274 83.8637 218.266 84.1276C217.572 60.7306 186.095 54.8396 147.371 54.8396C108.647 54.8396 77.1694 60.7322 76.475 84.1276C76.4658 83.8637 76.4627 83.5968 76.4627 83.3283V78.8164C76.4627 54.7552 108.209 48.7307 147.373 48.7307C186.536 48.7307 218.28 54.7552 218.28 78.8164H218.278Z" fill="#131E2E"/>
<path d="M187.095 19.2754C182.84 23.373 180.024 28.9051 178.712 36.0249C178.299 38.277 176.309 39.8955 174.019 39.8955H120.631C118.341 39.8955 116.351 38.2755 115.935 36.0249C114.625 28.9051 111.809 23.3715 107.553 19.2769C119.527 16.9159 133.033 16 147.325 16C161.617 16 175.123 16.9159 187.095 19.2754Z" fill="url(#paint12_radial_1_200)"/>
<path d="M187.095 19.2752C182.84 23.3729 180.024 28.9049 178.712 36.0248C178.299 38.2769 176.309 39.8954 174.019 39.8954H120.631C118.341 39.8954 116.351 38.2753 115.935 36.0248C114.625 28.9049 111.809 23.3713 107.553 19.2767C113.294 22.6825 116.646 25.5774 117.875 32.257C118.262 34.3695 120.13 35.8882 122.278 35.8882H172.367C174.517 35.8882 176.383 34.3679 176.77 32.257C178.001 25.5759 181.48 21.0901 187.092 19.2737L187.095 19.2752Z" fill="url(#paint13_linear_1_200)"/>
<path d="M147.37 220.62C157.938 220.62 166.505 212.065 166.505 201.511C166.505 190.957 157.938 182.402 147.37 182.402C136.802 182.402 128.234 190.957 128.234 201.511C128.234 212.065 136.802 220.62 147.37 220.62Z" fill="url(#paint14_linear_1_200)"/>
<path d="M147.37 216.794C155.822 216.794 162.674 209.952 162.674 201.511C162.674 193.07 155.822 186.228 147.37 186.228C138.917 186.228 132.066 193.07 132.066 201.511C132.066 209.952 138.917 216.794 147.37 216.794Z" fill="url(#paint15_radial_1_200)"/>
<path opacity="0.1" d="M162.674 201.511C162.674 202 162.651 202.485 162.605 202.962C161.873 195.201 155.332 189.129 147.37 189.129C139.407 189.129 132.866 195.201 132.135 202.962C132.087 202.485 132.066 202 132.066 201.511C132.066 193.069 138.917 186.228 147.37 186.228C155.822 186.228 162.674 193.069 162.674 201.511Z" fill="#15183A"/>
<path opacity="0.63" d="M152 320C188.451 320 218 314.627 218 308C218 301.373 188.451 296 152 296C115.549 296 86 301.373 86 308C86 314.627 115.549 320 152 320Z" fill="url(#paint16_radial_1_200)"/>
<defs>
<linearGradient id="paint0_linear_1_200" x1="119.724" y1="426.747" x2="119.925" y2="5.21491" gradientUnits="userSpaceOnUse">
<stop stop-color="#9FC6EA"/>
<stop offset="1" stop-color="#224267"/>
</linearGradient>
<linearGradient id="paint1_linear_1_200" x1="174.724" y1="481.747" x2="174.925" y2="60.2149" gradientUnits="userSpaceOnUse">
<stop stop-color="#9FC6EA"/>
<stop offset="1" stop-color="#224267"/>
</linearGradient>
<linearGradient id="paint2_linear_1_200" x1="242.451" y1="187.458" x2="201.885" y2="192.266" gradientUnits="userSpaceOnUse">
<stop stop-color="#E6E6E6"/>
<stop offset="1" stop-color="#A5B0B5"/>
</linearGradient>
<linearGradient id="paint3_linear_1_200" x1="50.2051" y1="189.13" x2="94.9744" y2="189.13" gradientUnits="userSpaceOnUse">
<stop stop-color="#E6E6E6"/>
<stop offset="1" stop-color="#A5B0B5"/>
</linearGradient>
<linearGradient id="paint4_linear_1_200" x1="147.953" y1="196.981" x2="147.953" y2="136.196" gradientUnits="userSpaceOnUse">
<stop stop-color="#E6E6E6"/>
<stop offset="1" stop-color="#A5B0B5"/>
</linearGradient>
<linearGradient id="paint5_linear_1_200" x1="147.949" y1="246.06" x2="147.949" y2="174.326" gradientUnits="userSpaceOnUse">
<stop stop-color="#E6E6E6"/>
<stop offset="1" stop-color="#A5B0B5"/>
</linearGradient>
<linearGradient id="paint6_linear_1_200" x1="43.7667" y1="74.3104" x2="63.5321" y2="74.3104" gradientUnits="userSpaceOnUse">
<stop stop-color="#E6E6E6"/>
<stop offset="1" stop-color="#A5B0B5"/>
</linearGradient>
<linearGradient id="paint7_linear_1_200" x1="231.207" y1="74.3104" x2="250.971" y2="74.3104" gradientUnits="userSpaceOnUse">
<stop stop-color="#E6E6E6"/>
<stop offset="1" stop-color="#A5B0B5"/>
</linearGradient>
<linearGradient id="paint8_linear_1_200" x1="58.1629" y1="74.3105" x2="236.489" y2="74.3105" gradientUnits="userSpaceOnUse">
<stop stop-color="#E6E6E6"/>
<stop offset="1" stop-color="#A5B0B5"/>
</linearGradient>
<linearGradient id="paint9_linear_1_200" x1="147.37" y1="56.0268" x2="147.37" y2="109.486" gradientUnits="userSpaceOnUse">
<stop stop-color="#2C5889"/>
<stop offset="1" stop-color="#15183A"/>
</linearGradient>
<radialGradient id="paint10_radial_1_200" cx="0" cy="0" r="1" gradientUnits="userSpaceOnUse" gradientTransform="translate(113.4 81.6176) scale(15.1489 8.01784)">
<stop stop-color="#638DB8"/>
<stop offset="1" stop-color="#5792AD"/>
</radialGradient>
<radialGradient id="paint11_radial_1_200" cx="0" cy="0" r="1" gradientUnits="userSpaceOnUse" gradientTransform="translate(181.339 81.6176) rotate(180) scale(15.1489 8.01784)">
<stop stop-color="#638DB8"/>
<stop offset="1" stop-color="#5792AD"/>
</radialGradient>
<radialGradient id="paint12_radial_1_200" cx="0" cy="0" r="1" gradientUnits="userSpaceOnUse" gradientTransform="translate(147.325 33.113) scale(46.9354 16.4047)">
<stop stop-color="#47BCD8"/>
<stop offset="1" stop-color="#15183A"/>
</radialGradient>
<linearGradient id="paint13_linear_1_200" x1="147.325" y1="20.9965" x2="147.325" y2="39.5425" gradientUnits="userSpaceOnUse">
<stop stop-color="#638DB8"/>
<stop offset="1" stop-color="#3B6696"/>
</linearGradient>
<linearGradient id="paint14_linear_1_200" x1="134.27" y1="189.184" x2="160.448" y2="213.886" gradientUnits="userSpaceOnUse">
<stop stop-color="#E6E6E6"/>
<stop offset="0.2" stop-color="#A5B0B5"/>
<stop offset="0.37" stop-color="#CCD1D3"/>
<stop offset="0.57" stop-color="#B5BEC2"/>
<stop offset="0.74" stop-color="white"/>
<stop offset="1" stop-color="#A5B0B5"/>
</linearGradient>
<radialGradient id="paint15_radial_1_200" cx="0" cy="0" r="1" gradientUnits="userSpaceOnUse" gradientTransform="translate(147.37 201.169) scale(15.4884 15.467)">
<stop stop-color="#47BCD8"/>
<stop offset="1" stop-color="#3B6696"/>
</radialGradient>
<radialGradient id="paint16_radial_1_200" cx="0" cy="0" r="1" gradientUnits="userSpaceOnUse" gradientTransform="translate(152 307.676) scale(63.0299 10.0286)">
<stop stop-opacity="0.81"/>
<stop offset="0.92" stop-opacity="0"/>
</radialGradient>
</defs>
</svg>
