<?xml version="1.0" encoding="UTF-8"?>
<svg id="Capa_1" data-name="Capa 1" xmlns="http://www.w3.org/2000/svg" viewBox="0 0 944.84 563.15">
  <defs>
    <style>
      .cls-1 {
        fill: #f7ce10;
      }

      .cls-1, .cls-2 {
        stroke-width: 0px;
      }

      .cls-2 {
        fill: #fff;
      }
    </style>
  </defs>
  <g>
    <path class="cls-2" d="M775.52,240.5c20.53-1.7,27.38-11.91,27.85-32.82-13.49-.23-30.92-.63-44.47,2.52-29.71,6.92-51.03,35.68-51.64,69.97-.42,23.55-.53,42.5-.53,66.06h32.71v-27.53l.19-30.54c0-10.43.66-20.17,5.85-29.05,3.74-6.39,10.11-16.97,30.04-18.61Z"/>
    <circle class="cls-1" cx="698.25" cy="225.69" r="18.16"/>
  </g>
  <g>
    <g>
      <path class="cls-2" d="M699.05,398.1c5.07-.42,6.76-2.94,6.88-8.11-3.33-.06-7.64-.16-10.98.62-7.34,1.71-12.6,8.81-12.76,17.28-.1,5.82-.13,10.5-.13,16.32h8.08v-6.8l.05-7.54c0-2.58.16-4.98,1.45-7.18.92-1.58,2.5-4.19,7.42-4.6Z"/>
      <path class="cls-2" d="M753.37,372.74s-.01,0-.02,0h0s0,0,0,0c-7.09-.03-7.73,3.24-7.96,7.31h0s0,.16,0,.16h-.01s0,10.95,0,11.12h0v32.87h7.98v-32.87h.01c0-.07,0-.14-.01-.21v-9.91c0-4.26.02-8.49.02-8.49Z"/>
      <path class="cls-2" d="M770.72,390.01s-.01,0-.02,0h0s0,0,0,0c-7.09-.03-7.73,3.24-7.96,7.31h0s0,26.89,0,26.89h7.98v-34.2Z"/>
      <circle class="cls-2" cx="766.8" cy="381.06" r="4.36"/>
      <path class="cls-2" d="M796.62,380.75c4.98-.41,6.64-2.89,6.76-7.96-3.27-.06-7.5-.15-10.78.61-7.2,1.68-12.65,8.65-12.65,16.97,0,2.26.03,21.87.02,33.82h7.91v-25.98s2.33-.01,3.4-.01c6.88,0,7.08-3.39,7.3-7.32,0-.02.01-.05.02-.07h-10.68c0-2.53.06-3.38,1.32-5.53.91-1.55,2.57-4.11,7.41-4.51Z"/>
      <path class="cls-2" d="M740.1,417.93c-3.93-3.96-8.13-1.46-8.64-1.22s-2.08,1.04-3.78,1.32c-.46.05-.91.1-1.42.1-6.01,0-9.49-3.48-10.28-8.54h16.99c6.45,0,7.39-3.9,6.76-7.37-1.39-7.21-6.8-12.26-15.35-12.26-10.5,0-17.31,7.31-17.31,17.6s6.88,17.45,18.25,17.45c0,0,8.91.65,14.77-7.07,0,0,0,0,0,0ZM724.39,396.83c4.24,0,6.99,2.91,7.35,7.02.01.16.02.32.03.48h-15.72c.87-4.63,4.01-7.5,8.35-7.5Z"/>
    </g>
    <g>
      <path class="cls-2" d="M628.86,403.84h5.29c1.11-.03,2.15-.24,3.11-.64s1.78-.96,2.45-1.71c.67-.75,1.08-1.65,1.25-2.69.26-1.53-.08-2.77-1.03-3.7-.95-.93-2.2-1.41-3.77-1.44h-4.6l-4.6,26.92,4.8-.05c1.44,0,2.75-.26,3.94-.78,1.19-.52,2.19-1.28,3.01-2.28.82-1,1.34-2.16,1.57-3.5.23-1.34.11-2.5-.34-3.48-.46-.98-1.17-1.73-2.15-2.25-.98-.52-2.15-.78-3.52-.78l-5.97-.05.39-2.25h5.73c1.5,0,2.9.19,4.21.56,1.3.38,2.42.94,3.35,1.69.93.75,1.62,1.69,2.06,2.81.44,1.13.55,2.46.32,3.99-.33,2.15-1.11,3.98-2.35,5.48s-2.77,2.64-4.6,3.4c-1.83.77-3.82,1.15-5.97,1.15h-9.2l5.87-34.26h8.42c1.4,0,2.68.19,3.82.56,1.14.38,2.11.92,2.91,1.64.8.72,1.37,1.61,1.71,2.67s.4,2.29.17,3.7c-.26,1.66-.92,3.05-1.98,4.16s-2.38,1.94-3.96,2.5c-1.58.56-3.3.85-5.16.88h-5.48l.34-2.25Z"/>
      <path class="cls-2" d="M649.86,434.97h-4.45l8.52-14.05-5.09-19.19h4.31l4.11,17.62-1.57-.25,9.69-17.38h4.46l-19.97,33.24Z"/>
    </g>
  </g>
  <path class="cls-2" d="M302.38,287.04c1.82,16.83,13.51,29.85,29.74,33.4,10.16,2.23,20.04,1.59,29.57-2.93,3.86-1.83,7.64-3.88,11.89-4.83,10.29-2.3,18.84.84,26.31,8.12-.59.81-1.05,1.5-1.57,2.14-12.08,14.59-27.63,23-46.29,25.79-14.09,2.1-27.93.68-41.3-3.97-23.3-8.12-37.54-24.56-42.68-48.59-3.36-15.71-2.49-31.34,3.37-46.4,8.5-21.82,24.52-35.13,47.26-40.25,13.1-2.95,26.29-2.82,39.19,1.15,20.58,6.34,33.34,20.38,39.27,40.86,1.27,4.37,2.22,8.84,1.98,13.42-.12,2.42-.44,4.88-1.12,7.2-1.8,6.16-6.02,10.17-11.94,12.46-4.94,1.92-10.12,2.43-15.37,2.43-21.72.02-43.44,0-65.15,0-.99,0-1.99,0-3.16,0ZM366,265.74c.08-.45.21-.77.19-1.08-1-16.43-11.77-28.79-28.7-29.23-10.32-.26-19.16,3.04-26.08,10.87-4.56,5.17-7.19,11.3-8.65,17.97-.1.44-.01.93-.01,1.46h63.26Z"/>
  <path class="cls-2" d="M582.18,287.04c1.82,16.83,13.51,29.85,29.74,33.4,10.16,2.23,20.04,1.59,29.57-2.93,3.86-1.83,7.64-3.88,11.89-4.83,10.29-2.3,18.84.84,26.31,8.12-.59.81-1.05,1.5-1.57,2.14-12.08,14.59-27.63,23-46.29,25.79-14.09,2.1-27.93.68-41.3-3.97-23.3-8.12-37.54-24.56-42.68-48.59-3.36-15.71-2.49-31.34,3.37-46.4,8.5-21.82,24.52-35.13,47.26-40.25,13.1-2.95,26.29-2.82,39.19,1.15,20.58,6.34,33.34,20.38,39.27,40.86,1.27,4.37,2.22,8.84,1.98,13.42-.12,2.42-.44,4.88-1.12,7.2-1.8,6.16-6.02,10.17-11.94,12.46-4.94,1.92-10.12,2.43-15.37,2.43-21.72.02-43.44,0-65.15,0-.99,0-1.99,0-3.16,0ZM645.8,265.74c.08-.45.21-.77.19-1.08-1-16.43-11.77-28.79-28.7-29.23-10.32-.26-19.16,3.04-26.08,10.87-4.56,5.17-7.19,11.3-8.65,17.97-.1.44-.01.93-.01,1.46h63.26Z"/>
  <path class="cls-2" d="M453.61,138.23v207.58c-1.93.51-28.29.66-32.13.17v-3.12c0-28.17,0-56.34,0-84.51,0-29.35,0-58.7,0-88.05,0-4.97.42-9.91,1.51-14.77,1.86-8.24,6.89-13.44,14.98-15.75,5.05-1.45,10.2-1.94,15.64-1.55Z"/>
  <path class="cls-2" d="M524.3,138.23v207.58c-1.93.51-28.29.66-32.13.17v-3.12c0-28.17,0-56.34,0-84.51,0-29.35,0-58.7,0-88.05,0-4.97.42-9.91,1.51-14.77,1.86-8.24,6.89-13.44,14.98-15.75,5.05-1.45,10.2-1.94,15.64-1.55Z"/>
  <path class="cls-2" d="M259.99,343.39v2.69h-87.63c-17.52,0-27.57-19.98-17.1-34.04l54.39-73.05h-40.11c-7.45,0-15.68-1.37-20.75-6.05-5.65-5.2-7.74-14.16-7.74-22.44v-2.69h85.11c17.44,0,27.51,19.81,17.22,33.9l-53.49,73.21h41.61c7.45,0,15.69,1.35,20.75,6.04,5.65,5.2,7.74,14.16,7.74,22.44Z"/>
</svg>